<mxfile host="app.diagrams.net" modified="2023-10-09T16:12:33.515Z" agent="Mozilla/5.0 (Windows NT 10.0; Win64; x64) AppleWebKit/537.36 (KHTML, like Gecko) Chrome/117.0.0.0 Safari/537.36" etag="1rNVG-ZhNc_BNuLQtyci" version="21.8.2" type="device">
  <diagram name="Halaman-1" id="udaKOO3mbE87l8EEt82m">
    <mxGraphModel dx="949" dy="1051" grid="1" gridSize="10" guides="1" tooltips="1" connect="1" arrows="1" fold="1" page="1" pageScale="1" pageWidth="827" pageHeight="1169" math="0" shadow="0">
      <root>
        <mxCell id="0" />
        <mxCell id="1" parent="0" />
        <mxCell id="PwQgM6faE-zVMWYIn8-m-9" value="" style="verticalLabelPosition=bottom;verticalAlign=top;html=1;shape=mxgraph.basic.smiley" vertex="1" parent="1">
          <mxGeometry x="170" y="200" width="100" height="100" as="geometry" />
        </mxCell>
        <mxCell id="PwQgM6faE-zVMWYIn8-m-10" value="Pembeli" style="text;html=1;align=center;verticalAlign=middle;resizable=0;points=[];autosize=1;strokeColor=none;fillColor=none;" vertex="1" parent="1">
          <mxGeometry x="185" y="298" width="70" height="30" as="geometry" />
        </mxCell>
        <mxCell id="PwQgM6faE-zVMWYIn8-m-11" value="Melihat Info tiket" style="ellipse;whiteSpace=wrap;html=1;" vertex="1" parent="1">
          <mxGeometry x="490" y="40" width="120" height="80" as="geometry" />
        </mxCell>
        <mxCell id="PwQgM6faE-zVMWYIn8-m-12" value="Memesan tiket" style="ellipse;whiteSpace=wrap;html=1;" vertex="1" parent="1">
          <mxGeometry x="490" y="170" width="120" height="80" as="geometry" />
        </mxCell>
        <mxCell id="PwQgM6faE-zVMWYIn8-m-13" value="Menerima bukti&lt;br&gt;pemesanan&amp;nbsp;&lt;br&gt;tiket" style="ellipse;whiteSpace=wrap;html=1;" vertex="1" parent="1">
          <mxGeometry x="490" y="300" width="120" height="80" as="geometry" />
        </mxCell>
        <mxCell id="PwQgM6faE-zVMWYIn8-m-14" value="Membayar&amp;nbsp;&lt;br&gt;tiket" style="ellipse;whiteSpace=wrap;html=1;" vertex="1" parent="1">
          <mxGeometry x="420" y="410" width="120" height="80" as="geometry" />
        </mxCell>
        <mxCell id="PwQgM6faE-zVMWYIn8-m-15" value="Konfirmasi&amp;nbsp;&lt;br&gt;pembayaran" style="ellipse;whiteSpace=wrap;html=1;" vertex="1" parent="1">
          <mxGeometry x="270" y="480" width="120" height="80" as="geometry" />
        </mxCell>
        <mxCell id="PwQgM6faE-zVMWYIn8-m-18" value="" style="endArrow=classic;html=1;rounded=0;" edge="1" parent="1">
          <mxGeometry width="50" height="50" relative="1" as="geometry">
            <mxPoint x="270" y="220" as="sourcePoint" />
            <mxPoint x="480" y="90" as="targetPoint" />
          </mxGeometry>
        </mxCell>
        <mxCell id="PwQgM6faE-zVMWYIn8-m-19" value="" style="endArrow=classic;html=1;rounded=0;" edge="1" parent="1">
          <mxGeometry width="50" height="50" relative="1" as="geometry">
            <mxPoint x="280" y="250" as="sourcePoint" />
            <mxPoint x="480" y="210" as="targetPoint" />
          </mxGeometry>
        </mxCell>
        <mxCell id="PwQgM6faE-zVMWYIn8-m-20" value="" style="endArrow=classic;html=1;rounded=0;" edge="1" parent="1">
          <mxGeometry width="50" height="50" relative="1" as="geometry">
            <mxPoint x="280" y="280" as="sourcePoint" />
            <mxPoint x="470" y="340" as="targetPoint" />
          </mxGeometry>
        </mxCell>
        <mxCell id="PwQgM6faE-zVMWYIn8-m-21" value="" style="endArrow=classic;html=1;rounded=0;" edge="1" parent="1">
          <mxGeometry width="50" height="50" relative="1" as="geometry">
            <mxPoint x="270" y="310" as="sourcePoint" />
            <mxPoint x="410" y="420" as="targetPoint" />
          </mxGeometry>
        </mxCell>
        <mxCell id="PwQgM6faE-zVMWYIn8-m-22" value="" style="endArrow=classic;html=1;rounded=0;" edge="1" parent="1">
          <mxGeometry width="50" height="50" relative="1" as="geometry">
            <mxPoint x="260" y="340" as="sourcePoint" />
            <mxPoint x="310" y="470" as="targetPoint" />
          </mxGeometry>
        </mxCell>
        <mxCell id="PwQgM6faE-zVMWYIn8-m-23" value="" style="verticalLabelPosition=bottom;verticalAlign=top;html=1;shape=mxgraph.basic.smiley" vertex="1" parent="1">
          <mxGeometry x="155" y="670" width="100" height="100" as="geometry" />
        </mxCell>
        <mxCell id="PwQgM6faE-zVMWYIn8-m-24" value="Admin" style="text;html=1;align=center;verticalAlign=middle;resizable=0;points=[];autosize=1;strokeColor=none;fillColor=none;" vertex="1" parent="1">
          <mxGeometry x="170" y="768" width="60" height="30" as="geometry" />
        </mxCell>
        <mxCell id="PwQgM6faE-zVMWYIn8-m-25" value="Melayani&lt;br&gt;Pemesanan" style="ellipse;whiteSpace=wrap;html=1;" vertex="1" parent="1">
          <mxGeometry x="470" y="670" width="120" height="80" as="geometry" />
        </mxCell>
        <mxCell id="PwQgM6faE-zVMWYIn8-m-26" value="Melakukan&amp;nbsp;&lt;br&gt;Konfirmasi" style="ellipse;whiteSpace=wrap;html=1;" vertex="1" parent="1">
          <mxGeometry x="414" y="790" width="120" height="80" as="geometry" />
        </mxCell>
        <mxCell id="PwQgM6faE-zVMWYIn8-m-27" value="Menyiapkan&amp;nbsp;&lt;br&gt;Tiket" style="ellipse;whiteSpace=wrap;html=1;" vertex="1" parent="1">
          <mxGeometry x="320" y="900" width="120" height="80" as="geometry" />
        </mxCell>
        <mxCell id="PwQgM6faE-zVMWYIn8-m-28" value="Membuat&lt;br&gt;Laporan" style="ellipse;whiteSpace=wrap;html=1;" vertex="1" parent="1">
          <mxGeometry x="155" y="920" width="120" height="80" as="geometry" />
        </mxCell>
        <mxCell id="PwQgM6faE-zVMWYIn8-m-29" value="" style="endArrow=classic;html=1;rounded=0;" edge="1" parent="1">
          <mxGeometry width="50" height="50" relative="1" as="geometry">
            <mxPoint x="260" y="720" as="sourcePoint" />
            <mxPoint x="450" y="710" as="targetPoint" />
          </mxGeometry>
        </mxCell>
        <mxCell id="PwQgM6faE-zVMWYIn8-m-30" value="" style="endArrow=classic;html=1;rounded=0;" edge="1" parent="1">
          <mxGeometry width="50" height="50" relative="1" as="geometry">
            <mxPoint x="260" y="750" as="sourcePoint" />
            <mxPoint x="410" y="810" as="targetPoint" />
          </mxGeometry>
        </mxCell>
        <mxCell id="PwQgM6faE-zVMWYIn8-m-31" value="" style="endArrow=classic;html=1;rounded=0;" edge="1" parent="1" source="PwQgM6faE-zVMWYIn8-m-23">
          <mxGeometry width="50" height="50" relative="1" as="geometry">
            <mxPoint x="300" y="930" as="sourcePoint" />
            <mxPoint x="340" y="890" as="targetPoint" />
          </mxGeometry>
        </mxCell>
        <mxCell id="PwQgM6faE-zVMWYIn8-m-32" value="" style="endArrow=classic;html=1;rounded=0;" edge="1" parent="1">
          <mxGeometry width="50" height="50" relative="1" as="geometry">
            <mxPoint x="200" y="810" as="sourcePoint" />
            <mxPoint x="210" y="910" as="targetPoint" />
          </mxGeometry>
        </mxCell>
      </root>
    </mxGraphModel>
  </diagram>
</mxfile>
